<?xml version="1.0" encoding="UTF-8" standalone="no"?>
<!-- Created with Inkscape (http://www.inkscape.org/) -->

<svg
   xmlns:dc="http://purl.org/dc/elements/1.1/"
   xmlns:cc="http://creativecommons.org/ns#"
   xmlns:rdf="http://www.w3.org/1999/02/22-rdf-syntax-ns#"
   xmlns:svg="http://www.w3.org/2000/svg"
   xmlns="http://www.w3.org/2000/svg"
   xmlns:sodipodi="http://sodipodi.sourceforge.net/DTD/sodipodi-0.dtd"
   xmlns:inkscape="http://www.inkscape.org/namespaces/inkscape"
   width="25mm"
   height="41mm"
   viewBox="0 0 24.999999 41.000002"
   version="1.1"
   id="svg8"
   inkscape:version="0.92.4 (5da689c313, 2019-01-14)"
   sodipodi:docname="pin_blue.svg">
  <defs
     id="defs2" />
  <sodipodi:namedview
     id="base"
     pagecolor="#ffffff"
     bordercolor="#666666"
     borderopacity="1.0"
     inkscape:pageopacity="0.0"
     inkscape:pageshadow="2"
     inkscape:zoom="3.2796268"
     inkscape:cx="80.673201"
     inkscape:cy="104.97211"
     inkscape:document-units="mm"
     inkscape:current-layer="layer1"
     showgrid="false"
     inkscape:window-width="1079"
     inkscape:window-height="995"
     inkscape:window-x="839"
     inkscape:window-y="28"
     inkscape:window-maximized="0"
     units="mm"
     inkscape:pagecheckerboard="true" />
  <metadata
     id="metadata5">
    <rdf:RDF>
      <cc:Work
         rdf:about="">
        <dc:format>image/svg+xml</dc:format>
        <dc:type
           rdf:resource="http://purl.org/dc/dcmitype/StillImage" />
        <dc:title></dc:title>
      </cc:Work>
    </rdf:RDF>
  </metadata>
  <g
     inkscape:label="Layer 1"
     inkscape:groupmode="layer"
     id="layer1"
     transform="translate(0,-255.99998)">
    <path
       style="fill:#404040"
       d="m 11.26048,294.7347 c -1.092069,-2.35212 -1.106429,-2.49635 -1.106429,-11.1123 v -8.72924 h 2.45118 2.451182 v 8.72924 c 0,8.61595 -0.01436,8.76018 -1.10643,11.1123 -0.608536,1.3107 -1.213674,2.38307 -1.344752,2.38307 -0.131076,0 -0.736215,-1.07237 -1.344751,-2.38307 z M 9.7647913,272.81962 c -3.1871705,-1.0733 -5.7543086,-5.57119 -5.2082899,-9.12547 0.5806187,-3.7795 2.6601356,-6.22983 6.1156106,-7.20608 6.025547,-1.70239 11.390925,4.23948 9.674776,10.7143 -1.231992,4.64814 -5.978292,7.1676 -10.5820967,5.61725 z m -0.3762867,-8.66294 c 0.4206027,-1.66129 1.0755364,-2.37402 2.5531764,-2.77848 1.765502,-0.48327 1.697302,-1.61015 -0.09205,-1.52084 -1.643415,0.0821 -3.5835523,1.87346 -3.9529249,3.64995 -0.4747071,2.28309 0.9240178,2.89196 1.4917895,0.64937 z"
       id="path3724"
       inkscape:connector-curvature="0" />
    <path
       style="fill:#003777"
       d="M 40.912579,64.471829 C 35.240259,63.219571 31.39501,61.106812 27.447476,57.073472 23.511363,53.051801 20.692073,48.357453 18.810624,42.692412 16.841633,36.76378 16.647823,31.193984 18.200231,25.150662 c 1.632395,-6.354699 4.047345,-10.876571 7.92408,-14.837443 3.849362,-3.9329044 8.12243,-6.4511684 14.027663,-8.2669785 2.548494,-0.7836406 3.120078,-0.8435642 8.078511,-0.8469324 5.047986,-0.00343 5.475852,0.042925 7.927732,0.8588641 6.340535,2.1100114 11.083081,5.4775028 14.959885,10.6224088 4.559567,6.051003 6.767379,12.812312 6.746142,20.659703 -0.02497,9.222772 -3.444169,17.538593 -9.619103,23.394513 -3.704541,3.513152 -8.235587,6.067208 -13.154119,7.414703 -3.509866,0.96157 -10.557179,1.121783 -14.178443,0.322329 z M 32.495175,36.096781 c 1.125989,-0.428101 2.148475,-2.205483 3.252133,-5.653168 1.161103,-3.627134 1.796096,-4.950238 3.074574,-6.406344 1.205999,-1.373558 2.950416,-2.398782 5.635316,-3.311976 5.299546,-1.802492 6.93014,-3.755437 4.589438,-5.496726 -0.729162,-0.542437 -1.292476,-0.640416 -3.681941,-0.640416 -2.715182,0 -2.92145,0.04974 -5.495346,1.325155 -4.894861,2.425499 -8.904543,7.310866 -10.074669,12.274902 -0.839413,3.561054 -0.474995,6.452718 0.954945,7.577508 0.926318,0.72864 0.775218,0.699985 1.74555,0.331065 z"
       id="path12"
       inkscape:connector-curvature="0"
       transform="matrix(0.26458333,0,0,0.26458333,0,255.99998)" />
  </g>
</svg>
